<svg width="1000" height="1000" viewBox="0 0 1000 1000" xmlns="http://www.w3.org/2000/svg">
  <filter id="noise">
    <feTurbulence type="fractalNoise" baseFrequency="0.65" numOctaves="3" stitchTiles="stitch" />
    <feColorMatrix type="matrix" values="1 0 0 0 0 0 1 0 0 0 0 0 1 0 0 0 0 0 0.5 0" />
  </filter>
  
  <!-- Base marble layer -->
  <rect width="1000" height="1000" fill="#f5f5f5" />
  
  <!-- Marble veins - light gray -->
  <path d="M0,300 Q250,280 500,350 T1000,280" stroke="#e0e0e0" stroke-width="60" fill="none" opacity="0.7" />
  <path d="M0,500 Q300,450 600,520 T1000,480" stroke="#e0e0e0" stroke-width="40" fill="none" opacity="0.6" />
  <path d="M0,700 Q400,650 700,720 T1000,680" stroke="#e0e0e0" stroke-width="50" fill="none" opacity="0.7" />
  
  <!-- Marble veins - darker accents -->
  <path d="M0,250 Q200,230 400,300 T1000,230" stroke="#bdbdbd" stroke-width="15" fill="none" opacity="0.4" />
  <path d="M0,450 Q250,400 550,470 T1000,430" stroke="#bdbdbd" stroke-width="10" fill="none" opacity="0.3" />
  <path d="M0,650 Q350,600 650,670 T1000,630" stroke="#bdbdbd" stroke-width="12" fill="none" opacity="0.4" />
  
  <!-- Subtle blue-gray veins for accent -->
  <path d="M200,0 Q180,200 250,400 T180,1000" stroke="#b0bec5" stroke-width="8" fill="none" opacity="0.3" />
  <path d="M600,0 Q580,300 650,500 T580,1000" stroke="#b0bec5" stroke-width="6" fill="none" opacity="0.2" />
  
  <!-- Noise texture overlay -->
  <rect width="1000" height="1000" filter="url(#noise)" opacity="0.05" />
</svg>

